<?xml version="1.0" encoding="UTF-8" standalone="no"?>
<svg
   xmlns:dc="http://purl.org/dc/elements/1.1/"
   xmlns:cc="http://creativecommons.org/ns#"
   xmlns:rdf="http://www.w3.org/1999/02/22-rdf-syntax-ns#"
   xmlns:svg="http://www.w3.org/2000/svg"
   xmlns="http://www.w3.org/2000/svg"
   version="1.1"
   id="svg3637"
   viewBox="0 0 173.12385 126.12221"
   height="35.59449mm"
   width="48.859398mm">
  <defs
     id="defs3639">
    <clipPath
       id="clipPath88"
       clipPathUnits="userSpaceOnUse">
      <path
         id="path90"
         d="m 487.194,799.142 85.209,0 0,-62.107 -85.209,0 0,62.107 z" />
    </clipPath>
    <clipPath
       id="clipPath76"
       clipPathUnits="userSpaceOnUse">
      <path
         id="path78"
         d="m 487.194,799.142 85.209,0 0,-62.107 -85.209,0 0,62.107 z" />
    </clipPath>
  </defs>
  <metadata
     id="metadata3642">
    <rdf:RDF>
      <cc:Work
         rdf:about="">
        <dc:format>image/svg+xml</dc:format>
        <dc:type
           rdf:resource="http://purl.org/dc/dcmitype/StillImage" />
        <dc:title></dc:title>
      </cc:Work>
    </rdf:RDF>
  </metadata>
  <g
     transform="translate(-184.30252,-46.348389)"
     id="layer1">
    <g
       id="g72"
       transform="matrix(2.0328522,0,0,-2.0328522,-806.13625,1670.8616)">
      <g
         clip-path="url(#clipPath76)"
         id="g74">
        <path
           id="path80"
           style="fill:#006cb7;fill-opacity:1;fill-rule:evenodd;stroke:none"
           d="m 495.548,765.377 -2.718,0 1.09,3.141 7.074,0 -0.138,-0.474 c -0.298,-1.029 -0.538,-1.708 -1.117,-2.604 -1.677,-2.747 -4.431,-4.417 -7.68,-4.417 -1.507,0 -3.095,0.408 -4.05,1.657 -0.891,1.163 -0.931,2.669 -0.607,4.043 0.937,3.971 4.868,6.959 8.934,6.959 1.535,0 2.939,-0.393 3.954,-1.592 0.404,-0.473 0.567,-0.848 0.773,-1.437 l 0.128,-0.367 -4.024,-1.205 -0.106,0.358 c -0.263,0.888 -0.815,0.99 -1.667,0.99 -1.95,0 -3.685,-1.967 -4.105,-3.749 -0.333,-1.411 0.182,-2.499 1.739,-2.499 0.997,0 1.891,0.463 2.52,1.196" />
      </g>
    </g>
    <path
       id="path82"
       style="fill:#006cb7;fill-opacity:1;fill-rule:evenodd;stroke:none"
       d="m 247.58457,111.43014 -4.01285,11.60759 -7.60287,0 8.29404,-23.942933 6.90153,0 4.32998,11.465283 3.97016,-11.465283 7.6049,0 -8.29607,23.942933 -6.73484,0 -4.45398,-11.60759" />
    <g
       id="g84"
       transform="matrix(2.0328522,0,0,-2.0328522,-806.13625,1670.8616)">
      <g
         clip-path="url(#clipPath88)"
         id="g86">
        <path
           id="path92"
           style="fill:#006cb7;fill-opacity:1;fill-rule:evenodd;stroke:none"
           d="m 545.743,767.538 1.954,5.639 3.741,0 -4.081,-11.777 -3.313,0 -2.191,5.71 -1.974,-5.71 -3.74,0 4.079,11.777 3.396,0 2.129,-5.639" />
        <path
           id="path94"
           style="fill:#006cb7;fill-opacity:1;fill-rule:evenodd;stroke:none"
           d="m 568.8,766.223 1.526,-4.808 -4.233,0 -0.925,3.674 -1.263,-3.674 -3.741,0 4.08,11.778 4.55,0 c 0.518,0 1.088,-0.021 1.598,-0.114 l 0.006,-10e-4 0.007,-10e-4 c 1.643,-0.356 2.238,-1.683 1.869,-3.249 -0.284,-1.202 -1.094,-2.367 -2.142,-3.03 -0.428,-0.265 -0.863,-0.442 -1.332,-0.575 z m -1.838,4.008 -0.714,-2.028 0.23,0 c 0.878,0 1.657,0.451 1.866,1.336 0.031,0.134 0.064,0.345 -0.017,0.469 -0.134,0.202 -0.602,0.223 -0.811,0.223 l -0.554,0" />
      </g>
    </g>
    <path
       id="path96"
       style="fill:#da1f3d;fill-opacity:1;fill-rule:evenodd;stroke:none"
       d="m 272.78787,51.879776 c 7.85291,-3.555459 16.56368,-5.531391 25.73388,-5.531391 26.23395,0 48.7112,16.183531 58.10095,39.168991 l 0.12197,0.306961 c -7.54189,-14.185243 -21.75762,-23.63394 -38.21559,-23.63394 -18.27738,0 -33.9527,11.684835 -40.592,28.502621 l -39.36618,-0.01464 c 2.87852,-9.286069 7.83055,-17.651256 14.31738,-24.546691 -12.43902,2.82973 -23.18875,10.788347 -28.54735,24.691023 L 187.3227,90.80807 c 7.96471,-25.687121 31.7938,-44.330404 59.95084,-44.330404 9.09498,0 17.66955,1.90275 25.51433,5.401288" />
    <path
       id="path98"
       style="fill:#006cb7;fill-opacity:1;fill-rule:evenodd;stroke:none"
       d="m 270.76518,166.93717 c -7.85291,3.55546 -16.56368,5.53343 -25.73388,5.53343 -26.23395,0 -48.7112,-16.18557 -58.10094,-39.17103 l -0.12198,-0.30493 c 7.53985,14.18321 21.75762,23.63191 38.21559,23.63191 18.27738,0 33.9527,-11.68484 40.58996,-28.50262 l 39.36822,0.0146 c -2.87852,9.28607 -7.83055,17.65126 -14.31738,24.54873 12.43699,-2.83177 23.18875,-10.79038 28.54531,-24.69306 l 37.02027,0.0146 c -7.96674,25.68712 -31.7938,44.33244 -59.95084,44.33244 -9.09498,0 -17.66955,-1.90275 -25.51433,-5.40332" />
    <path
       id="path100"
       style="fill:#006cb7;fill-opacity:1;fill-rule:evenodd;stroke:none"
       d="m 225.36753,116.13416 c 0.99406,-0.87006 1.35997,-2.15482 1.77061,-3.37453 l 4.76501,-13.715655 7.47479,0 -5.01301,14.669065 c -0.41674,1.23394 -0.91072,2.53496 -1.547,3.67743 -2.41096,4.22223 -7.17394,6.38722 -11.92878,6.38722 -2.58579,0 -5.60457,-0.63222 -7.08652,-2.9761 -0.93105,-1.47178 -0.98187,-3.2363 -0.59156,-4.88901 0.20938,-0.89242 0.50211,-1.8194 0.80094,-2.68539 l 4.87478,-14.183215 7.6354,0 -4.90934,14.223865 -0.007,0.0184 c -0.17686,0.43706 -0.44113,1.1445 -0.47975,1.61612 -0.0956,1.16076 0.41064,1.99829 1.63441,2.05318 0.93918,0.0406 1.86209,-0.24801 2.60612,-0.82127" />
    <path
       id="path102"
       style="fill:#006cb7;fill-opacity:1;fill-rule:evenodd;stroke:none"
       d="m 227.03446,97.55796 -7.59473,0 0.31916,-0.985933 c 0.21751,-0.67694 0.44926,-1.351847 0.681,-2.024721 l 0.17483,-0.508213 7.63539,0 -1.21565,3.518867" />
    <path
       id="path104"
       style="fill:#006cb7;fill-opacity:1;fill-rule:evenodd;stroke:none"
       d="m 239.90242,97.55796 -7.56018,0 1.22378,-3.518867 7.53985,0 -1.20345,3.518867" />
    <path
       id="path106"
       style="fill:#006cb7;fill-opacity:1;fill-rule:evenodd;stroke:none"
       d="m 281.41733,105.71986 -5.98065,17.3321 -7.60287,0 5.97862,-17.3321 -5.15328,0 2.27882,-6.610834 18.01514,0 -2.31948,6.610834 -5.2163,0" />
    <path
       id="path108"
       style="fill:#006cb7;fill-opacity:1;fill-rule:evenodd;stroke:none"
       d="m 325.96525,105.10187 -0.88429,2.537 6.81412,0 -2.06741,5.98879 -6.84868,0 -1.15669,3.37656 8.12328,0 -2.07351,6.01928 -15.72615,0 8.29404,-23.940901 15.46391,0 -2.07351,6.019271 -7.86511,0" />
  </g>
</svg>
